<svg xmlns="http://www.w3.org/2000/svg" xmlns:xlink="http://www.w3.org/1999/xlink" width="500" zoomAndPan="magnify" viewBox="0 0 375 374.999991" height="500" preserveAspectRatio="xMidYMid meet" version="1.0"><defs><clipPath id="id1"><path d="M 0 34.089844 L 375 34.089844 L 375 340.839844 L 0 340.839844 Z M 0 34.089844 " clip-rule="nonzero"/></clipPath><clipPath id="id2"><path d="M 6.992188 4.378906 L 370.742188 4.378906 L 370.742188 368.128906 L 6.992188 368.128906 Z M 6.992188 4.378906 " clip-rule="nonzero"/></clipPath></defs><g clip-path="url(#id1)"><path fill="rgb(100%, 100%, 100%)" d="M 68.1875 207.574219 L 68.1875 275.742188 L 187.5 340.839844 L 306.8125 275.742188 L 306.8125 207.574219 L 187.5 272.675781 Z M 187.5 34.089844 L 0.0078125 136.339844 L 187.5 238.589844 L 340.902344 154.917969 L 340.902344 272.675781 L 374.992188 272.675781 L 374.992188 136.339844 Z M 187.5 34.089844 " fill-opacity="1" fill-rule="nonzero"/></g><g clip-path="url(#id2)"><path fill="rgb(100%, 100%, 100%)" d="M 354.925781 67.636719 L 267.941406 67.636719 L 267.941406 65.503906 C 267.9375 63.5 267.839844 61.503906 267.640625 59.515625 C 267.441406 57.523438 267.144531 55.546875 266.753906 53.582031 C 266.363281 51.621094 265.875 49.683594 265.292969 47.769531 C 264.710938 45.851562 264.035156 43.972656 263.265625 42.125 C 262.5 40.273438 261.644531 38.46875 260.699219 36.703125 C 259.757812 34.941406 258.726562 33.226562 257.617188 31.5625 C 256.503906 29.898438 255.3125 28.292969 254.042969 26.746094 C 252.773438 25.199219 251.429688 23.71875 250.015625 22.304688 C 248.601562 20.886719 247.117188 19.546875 245.570312 18.277344 C 244.027344 17.007812 242.421875 15.816406 240.757812 14.703125 C 239.09375 13.589844 237.378906 12.5625 235.613281 11.617188 C 233.851562 10.675781 232.042969 9.816406 230.195312 9.050781 C 228.347656 8.285156 226.464844 7.609375 224.550781 7.027344 C 222.636719 6.445312 220.699219 5.957031 218.734375 5.566406 C 216.773438 5.171875 214.796875 4.878906 212.804688 4.679688 C 210.8125 4.480469 208.816406 4.378906 206.816406 4.378906 L 170.914062 4.378906 C 168.914062 4.378906 166.917969 4.480469 164.925781 4.679688 C 162.933594 4.878906 160.957031 5.171875 158.996094 5.566406 C 157.03125 5.957031 155.09375 6.445312 153.179688 7.027344 C 151.265625 7.609375 149.382812 8.285156 147.535156 9.050781 C 145.6875 9.816406 143.878906 10.675781 142.117188 11.617188 C 140.351562 12.5625 138.636719 13.589844 136.972656 14.703125 C 135.308594 15.816406 133.707031 17.007812 132.160156 18.277344 C 130.613281 19.546875 129.128906 20.886719 127.714844 22.304688 C 126.300781 23.71875 124.957031 25.199219 123.6875 26.746094 C 122.417969 28.292969 121.226562 29.898438 120.113281 31.5625 C 119.003906 33.226562 117.972656 34.941406 117.03125 36.703125 C 116.085938 38.46875 115.230469 40.273438 114.464844 42.125 C 113.695312 43.972656 113.023438 45.851562 112.4375 47.769531 C 111.855469 49.683594 111.371094 51.621094 110.976562 53.582031 C 110.585938 55.546875 110.289062 57.523438 110.089844 59.515625 C 109.890625 61.503906 109.792969 63.5 109.789062 65.503906 L 109.789062 67.636719 L 22.804688 67.636719 C 21.765625 67.636719 20.738281 67.738281 19.71875 67.941406 C 18.703125 68.144531 17.710938 68.445312 16.753906 68.84375 C 15.792969 69.238281 14.882812 69.726562 14.019531 70.304688 C 13.15625 70.878906 12.355469 71.535156 11.621094 72.269531 C 10.886719 73.003906 10.234375 73.804688 9.65625 74.667969 C 9.078125 75.53125 8.589844 76.441406 8.195312 77.402344 C 7.796875 78.359375 7.496094 79.347656 7.292969 80.367188 C 7.089844 81.386719 6.992188 82.414062 6.992188 83.453125 L 6.992188 352.3125 C 6.992188 353.351562 7.089844 354.378906 7.292969 355.398438 C 7.496094 356.414062 7.796875 357.40625 8.195312 358.363281 C 8.589844 359.324219 9.078125 360.234375 9.65625 361.097656 C 10.234375 361.960938 10.886719 362.761719 11.621094 363.496094 C 12.355469 364.230469 13.15625 364.886719 14.019531 365.460938 C 14.882812 366.039062 15.792969 366.527344 16.753906 366.921875 C 17.710938 367.320312 18.703125 367.621094 19.71875 367.824219 C 20.738281 368.027344 21.765625 368.128906 22.804688 368.128906 L 354.925781 368.128906 C 355.964844 368.128906 356.992188 368.027344 358.011719 367.824219 C 359.027344 367.621094 360.019531 367.320312 360.976562 366.921875 C 361.9375 366.527344 362.847656 366.039062 363.710938 365.460938 C 364.574219 364.886719 365.375 364.230469 366.109375 363.496094 C 366.84375 362.761719 367.5 361.960938 368.074219 361.097656 C 368.652344 360.234375 369.140625 359.324219 369.535156 358.363281 C 369.933594 357.40625 370.234375 356.414062 370.4375 355.398438 C 370.640625 354.378906 370.742188 353.351562 370.742188 352.3125 L 370.742188 83.453125 C 370.742188 82.414062 370.640625 81.386719 370.4375 80.367188 C 370.234375 79.347656 369.933594 78.359375 369.535156 77.402344 C 369.140625 76.441406 368.652344 75.53125 368.074219 74.667969 C 367.5 73.804688 366.84375 73.003906 366.109375 72.269531 C 365.375 71.535156 364.574219 70.878906 363.710938 70.304688 C 362.847656 69.726562 361.9375 69.238281 360.976562 68.84375 C 360.019531 68.445312 359.027344 68.144531 358.011719 67.941406 C 356.992188 67.738281 355.964844 67.636719 354.925781 67.636719 Z M 141.417969 65.503906 C 141.421875 64.539062 141.472656 63.574219 141.570312 62.613281 C 141.664062 61.652344 141.808594 60.699219 142 59.753906 C 142.191406 58.808594 142.425781 57.871094 142.707031 56.949219 C 142.988281 56.027344 143.316406 55.121094 143.6875 54.226562 C 144.054688 53.335938 144.46875 52.464844 144.925781 51.613281 C 145.382812 50.765625 145.878906 49.9375 146.414062 49.136719 C 146.953125 48.332031 147.527344 47.558594 148.140625 46.8125 C 148.75 46.066406 149.398438 45.351562 150.082031 44.667969 C 150.765625 43.988281 151.480469 43.339844 152.226562 42.726562 C 152.96875 42.113281 153.746094 41.539062 154.546875 41.003906 C 155.347656 40.464844 156.175781 39.96875 157.027344 39.511719 C 157.878906 39.058594 158.75 38.644531 159.640625 38.273438 C 160.53125 37.902344 161.4375 37.578125 162.363281 37.296875 C 163.285156 37.011719 164.21875 36.777344 165.167969 36.585938 C 166.113281 36.398438 167.066406 36.253906 168.027344 36.15625 C 168.988281 36.058594 169.949219 36.011719 170.914062 36.007812 L 206.738281 36.007812 C 207.703125 36.007812 208.667969 36.054688 209.628906 36.148438 C 210.59375 36.246094 211.546875 36.386719 212.496094 36.574219 C 213.445312 36.761719 214.382812 36.996094 215.308594 37.277344 C 216.234375 37.558594 217.140625 37.882812 218.035156 38.25 C 218.929688 38.621094 219.804688 39.03125 220.65625 39.488281 C 221.507812 39.941406 222.339844 40.4375 223.144531 40.976562 C 223.945312 41.511719 224.722656 42.085938 225.472656 42.699219 C 226.21875 43.3125 226.9375 43.957031 227.621094 44.640625 C 228.304688 45.324219 228.957031 46.039062 229.570312 46.785156 C 230.183594 47.53125 230.761719 48.308594 231.300781 49.109375 C 231.839844 49.914062 232.335938 50.742188 232.792969 51.59375 C 233.25 52.445312 233.664062 53.316406 234.039062 54.210938 C 234.410156 55.101562 234.734375 56.011719 235.019531 56.9375 C 235.300781 57.859375 235.539062 58.796875 235.730469 59.746094 C 235.921875 60.691406 236.0625 61.648438 236.160156 62.609375 C 236.257812 63.570312 236.308594 64.535156 236.3125 65.503906 L 236.3125 67.636719 L 141.417969 67.636719 Z M 125.605469 99.269531 L 339.109375 99.269531 L 339.109375 186.253906 L 228.402344 186.253906 L 228.402344 170.4375 C 228.402344 169.398438 228.300781 168.371094 228.097656 167.351562 C 227.898438 166.332031 227.597656 165.34375 227.199219 164.382812 C 226.800781 163.425781 226.316406 162.515625 225.738281 161.652344 C 225.160156 160.785156 224.503906 159.988281 223.769531 159.253906 C 223.035156 158.519531 222.238281 157.863281 221.375 157.285156 C 220.511719 156.710938 219.601562 156.222656 218.640625 155.824219 C 217.679688 155.429688 216.691406 155.128906 215.671875 154.925781 C 214.65625 154.722656 213.625 154.621094 212.589844 154.621094 L 165.144531 154.621094 C 164.105469 154.621094 163.074219 154.722656 162.058594 154.925781 C 161.039062 155.128906 160.050781 155.429688 159.089844 155.824219 C 158.132812 156.222656 157.21875 156.710938 156.355469 157.285156 C 155.492188 157.863281 154.695312 158.519531 153.960938 159.253906 C 153.226562 159.988281 152.570312 160.785156 151.992188 161.652344 C 151.414062 162.515625 150.929688 163.425781 150.53125 164.382812 C 150.132812 165.34375 149.832031 166.332031 149.632812 167.351562 C 149.429688 168.371094 149.328125 169.398438 149.328125 170.4375 L 149.328125 186.253906 L 38.621094 186.253906 L 38.621094 99.269531 Z M 196.773438 186.253906 L 196.773438 217.882812 L 180.957031 217.882812 L 180.957031 186.253906 Z M 38.621094 336.496094 L 38.621094 217.882812 L 149.328125 217.882812 L 149.328125 233.699219 C 149.328125 234.734375 149.429688 235.765625 149.632812 236.78125 C 149.832031 237.800781 150.132812 238.789062 150.53125 239.75 C 150.929688 240.710938 151.414062 241.621094 151.992188 242.484375 C 152.570312 243.347656 153.226562 244.148438 153.960938 244.878906 C 154.695312 245.613281 155.492188 246.269531 156.355469 246.847656 C 157.21875 247.425781 158.132812 247.910156 159.089844 248.308594 C 160.050781 248.707031 161.039062 249.007812 162.058594 249.210938 C 163.074219 249.410156 164.105469 249.511719 165.144531 249.511719 L 212.589844 249.511719 C 213.625 249.511719 214.65625 249.410156 215.671875 249.210938 C 216.691406 249.007812 217.679688 248.707031 218.640625 248.308594 C 219.601562 247.910156 220.511719 247.425781 221.375 246.847656 C 222.238281 246.269531 223.035156 245.613281 223.769531 244.878906 C 224.503906 244.148438 225.160156 243.347656 225.738281 242.484375 C 226.316406 241.621094 226.800781 240.710938 227.199219 239.75 C 227.597656 238.789062 227.898438 237.800781 228.097656 236.78125 C 228.300781 235.765625 228.402344 234.734375 228.402344 233.699219 L 228.402344 217.882812 L 339.109375 217.882812 L 339.109375 336.496094 Z M 38.621094 336.496094 " fill-opacity="1" fill-rule="nonzero"/></g></svg>