<svg xmlns="http://www.w3.org/2000/svg" xmlns:xlink="http://www.w3.org/1999/xlink" width="500" zoomAndPan="magnify" viewBox="0 0 375 374.999991" height="500" preserveAspectRatio="xMidYMid meet" version="1.0"><path fill="rgb(0%, 0%, 0%)" d="M 245.785156 176.859375 L 167.300781 98.296875 L 195.210938 70.390625 L 245.785156 121.042969 L 358.964844 7.863281 C 352.332031 3.007812 344.316406 0 335.527344 0 L 39.472656 0 C 17.730469 0 0 17.730469 0 39.472656 L 0 335.527344 C 0 357.269531 17.730469 375 39.472656 375 L 335.527344 375 C 357.269531 375 375 357.269531 375 335.527344 L 375 47.644531 Z M 88.816406 335.527344 C 61.136719 335.527344 43.175781 320.492188 40.089844 296.050781 C 40.089844 296.050781 78.949219 296.050781 88.816406 296.050781 C 97.375 296.050781 98.683594 289.886719 98.683594 286.183594 C 98.683594 280.710938 94.289062 276.316406 88.816406 276.316406 C 61.601562 276.316406 39.472656 254.1875 39.472656 226.972656 C 39.472656 199.757812 61.601562 177.632812 88.816406 177.632812 C 117.109375 177.632812 133.917969 196.75 137.386719 217.105469 C 137.386719 217.105469 97.683594 217.105469 88.816406 217.105469 C 83.34375 217.105469 78.949219 221.5 78.949219 226.972656 C 78.949219 232.449219 83.34375 236.84375 88.816406 236.84375 C 116.03125 236.84375 138.15625 258.96875 138.15625 286.183594 C 138.15625 314.324219 116.957031 335.527344 88.816406 335.527344 Z M 217.105469 296.050781 L 272.691406 296.050781 C 264.519531 318.949219 242.777344 335.527344 217.105469 335.527344 C 184.492188 335.527344 157.894531 308.929688 157.894531 276.316406 C 157.894531 243.703125 184.492188 217.105469 217.105469 217.105469 C 249.71875 217.105469 276.316406 243.703125 276.316406 276.316406 L 197.367188 276.316406 C 197.367188 287.1875 206.234375 296.050781 217.105469 296.050781 Z M 217.105469 296.050781 " fill-opacity="1" fill-rule="nonzero"/></svg>