<svg xmlns="http://www.w3.org/2000/svg" xmlns:xlink="http://www.w3.org/1999/xlink" width="500" zoomAndPan="magnify" viewBox="0 0 375 374.999991" height="500" preserveAspectRatio="xMidYMid meet" version="1.0"><defs><clipPath id="id1"><path d="M 201 88 L 335.90625 88 L 335.90625 375 L 201 375 Z M 201 88 " clip-rule="nonzero"/></clipPath><clipPath id="id2"><path d="M 256 0 L 335.90625 0 L 335.90625 83 L 256 83 Z M 256 0 " clip-rule="nonzero"/></clipPath></defs><path fill="rgb(7.839966%, 51.759338%, 28.62854%)" d="M 325.117188 98.71875 L 268.652344 98.703125 L 268.652344 213.015625 C 268.652344 263.390625 266.089844 282.5625 258.019531 299.109375 C 250.320312 315.28125 238.21875 325.8125 213.28125 337.84375 L 265.714844 363.40625 C 290.652344 350.625 302.753906 338.96875 311.921875 320.546875 C 321.820312 301.375 325.117188 279.1875 325.117188 232.953125 Z M 325.117188 98.71875 " fill-opacity="1" fill-rule="nonzero"/><path fill="rgb(7.839966%, 51.759338%, 28.62854%)" d="M 230.285156 282.875 L 230.285156 11.90625 L 173.398438 11.90625 L 173.398438 93.21875 C 164.921875 90.828125 157.894531 90.03125 148.664062 90.03125 C 89.1875 90.03125 50.773438 130.5 50.773438 192.796875 C 50.773438 257.46875 86.96875 291.203125 156.425781 291.203125 C 179.691406 291.203125 201.117188 288.8125 230.285156 282.875 Z M 108.769531 191.59375 C 108.769531 158.265625 125.382812 139.21875 154.191406 139.21875 L 154.144531 139.21875 C 154.550781 139.203125 154.941406 139.203125 155.347656 139.203125 C 161.8125 139.203125 168.011719 140.375 173.414062 142.390625 L 173.414062 240.390625 C 165.296875 241.59375 160.125 241.984375 153.847656 241.984375 C 124.664062 241.984375 108.769531 224.140625 108.769531 191.59375 Z M 108.769531 191.59375 " fill-opacity="1" fill-rule="nonzero"/><path fill="rgb(7.839966%, 51.759338%, 28.62854%)" d="M 265.652344 9.953125 L 326.507812 9.953125 L 326.507812 72.859375 L 265.652344 72.859375 Z M 265.652344 9.953125 " fill-opacity="1" fill-rule="nonzero"/><g clip-path="url(#id1)"><path fill="rgb(0%, 0%, 0%)" d="M 265.199219 375.125 C 263.453125 375.125 261.671875 374.734375 260.0625 373.9375 L 208.144531 348.546875 C 204.113281 346.578125 201.554688 342.484375 201.570312 338 C 201.585938 333.515625 204.144531 329.421875 208.191406 327.46875 C 230.394531 316.71875 240.542969 308.109375 247.007812 294.5 C 254.222656 279.6875 256.410156 260.90625 256.410156 214 L 256.410156 100.421875 C 256.410156 93.953125 261.65625 88.703125 268.121094 88.703125 L 324.039062 88.703125 C 330.503906 88.703125 335.75 93.96875 335.75 100.4375 L 335.75 233.796875 C 335.75 282.015625 332.128906 305.34375 321.382812 326.203125 C 311.109375 346.9375 296.835938 360.34375 270.558594 373.828125 C 268.886719 374.6875 267.042969 375.125 265.199219 375.125 Z M 238.578125 337.328125 L 264.980469 350.25 C 283.453125 340.09375 293.027344 330.625 300.460938 315.609375 C 309.328125 298.359375 312.3125 277.765625 312.3125 233.78125 L 312.3125 112.15625 L 279.816406 112.140625 L 279.816406 213.984375 C 279.816406 265.640625 277.191406 285.984375 268.121094 304.65625 C 261.859375 317.859375 252.941406 327.921875 238.578125 337.328125 Z M 238.578125 337.328125 " fill-opacity="1" fill-rule="nonzero"/></g><path fill="rgb(0%, 0%, 0%)" d="M 156.457031 297.203125 C 80.753906 297.203125 39.0625 260.1875 39.0625 193 C 39.0625 128.21875 83.113281 84.703125 148.695312 84.703125 C 153.457031 84.703125 157.691406 84.90625 161.75 85.34375 L 161.75 11.84375 C 161.75 5.375 166.996094 0.125 173.460938 0.125 L 230.363281 0.125 C 236.828125 0.125 242.074219 5.375 242.074219 11.84375 L 242.074219 277.65625 C 242.074219 283.28125 238.078125 288.109375 232.566406 289.171875 C 202.710938 294.875 180.660156 297.203125 156.457031 297.203125 Z M 230.347656 277.65625 L 230.503906 277.65625 Z M 148.695312 108.140625 C 95.527344 108.140625 62.484375 140.65625 62.484375 193 C 62.484375 247.34375 93.230469 273.75 156.457031 273.75 C 176.476562 273.75 195.058594 272.03125 218.636719 267.875 L 218.636719 23.5625 L 185.15625 23.5625 L 185.15625 99.40625 C 185.15625 103.03125 183.488281 106.46875 180.597656 108.6875 C 177.710938 110.90625 173.960938 111.640625 170.480469 110.75 C 163.265625 108.84375 157.363281 108.140625 148.695312 108.140625 Z M 153.878906 250.9375 C 118.324219 250.9375 97.089844 228.859375 97.089844 191.875 C 97.089844 154.3125 118.933594 130.984375 154.128906 130.9375 C 154.144531 130.9375 154.160156 130.9375 154.175781 130.9375 C 154.144531 130.875 155.269531 130.90625 155.378906 130.90625 C 162.921875 130.90625 170.527344 132.171875 177.335938 134.5625 C 182.019531 136.203125 185.15625 140.640625 185.15625 145.625 L 185.15625 237.734375 C 185.15625 243.59375 180.847656 248.546875 175.054688 249.34375 C 166.605469 250.5 160.875 250.9375 153.878906 250.9375 Z M 154.238281 154.359375 C 131.847656 154.359375 120.511719 166.984375 120.511719 191.859375 C 120.511719 216.171875 131.113281 227.484375 153.878906 227.484375 C 156.644531 227.484375 159.128906 227.40625 161.75 227.21875 L 161.75 154.796875 C 159.519531 154.484375 157.238281 154.46875 154.972656 154.34375 C 154.722656 154.359375 154.488281 154.359375 154.238281 154.359375 Z M 154.238281 154.359375 " fill-opacity="1" fill-rule="nonzero"/><g clip-path="url(#id2)"><path fill="rgb(0%, 0%, 0%)" d="M 324.039062 82.640625 L 268.121094 82.640625 C 261.65625 82.640625 256.410156 77.390625 256.410156 70.921875 L 256.410156 11.90625 C 256.410156 5.4375 261.65625 0.1875 268.121094 0.1875 L 324.039062 0.1875 C 330.503906 0.1875 335.75 5.4375 335.75 11.90625 L 335.75 70.921875 C 335.75 77.390625 330.503906 82.640625 324.039062 82.640625 Z M 279.832031 59.203125 L 312.328125 59.203125 L 312.328125 23.625 L 279.832031 23.625 Z M 279.832031 59.203125 " fill-opacity="1" fill-rule="nonzero"/></g></svg>